<?xml version="1.0" standalone="no"?>
<!DOCTYPE svg PUBLIC "-//W3C//DTD SVG 20010904//EN"
 "http://www.w3.org/TR/2001/REC-SVG-20010904/DTD/svg10.dtd">
<svg version="1.0" xmlns="http://www.w3.org/2000/svg"
 width="700.000000pt" height="700.000000pt" viewBox="0 0 700.000000 700.000000"
 preserveAspectRatio="xMidYMid meet">
<metadata>
Created by potrace 1.14, written by Peter Selinger 2001-2017
</metadata>
<g transform="translate(0.000000,700.000000) scale(0.100000,-0.100000)"
fill="#000000" stroke="none">
<path d="M3278 6995 c-1 -1 -42 -5 -89 -9 -47 -4 -95 -8 -105 -10 -10 -2 -41
-7 -69 -10 -93 -12 -130 -18 -135 -21 -3 -2 -24 -6 -46 -9 -153 -23 -425 -103
-639 -188 -151 -60 -420 -195 -492 -245 -17 -13 -34 -23 -37 -23 -5 0 -117
-74 -240 -160 -42 -29 -232 -185 -280 -229 -235 -220 -412 -427 -571 -671
-106 -161 -131 -206 -214 -375 -123 -250 -236 -568 -276 -776 -3 -13 -11 -58
-20 -99 -29 -147 -36 -200 -52 -370 -15 -165 -8 -592 12 -711 2 -13 6 -46 9
-74 47 -409 239 -952 466 -1318 30 -48 60 -95 65 -105 13 -21 47 -74 58 -87 4
-5 32 -44 63 -85 147 -201 342 -410 544 -585 109 -93 341 -265 359 -265 6 0
11 -4 11 -10 0 -5 4 -10 10 -10 5 0 40 -20 78 -44 156 -101 471 -247 697 -324
194 -66 424 -120 624 -148 25 -3 57 -8 71 -10 162 -25 683 -25 841 1 13 2 47
7 74 10 71 10 87 13 115 18 14 3 43 8 65 12 22 4 67 14 100 22 33 8 71 17 85
20 71 12 300 87 443 144 788 314 1444 919 1829 1689 120 240 237 566 284 795
17 81 54 301 59 350 4 33 9 71 11 85 9 47 11 525 4 605 -16 169 -22 220 -25
225 -2 3 -6 30 -10 60 -9 76 -69 340 -96 425 -12 39 -24 76 -25 84 -5 25 -77
217 -121 321 -233 548 -647 1068 -1133 1423 -58 43 -109 81 -115 85 -14 10
-67 45 -87 57 -9 5 -50 30 -90 55 -342 208 -856 395 -1228 445 -19 3 -46 7
-60 10 -13 2 -52 7 -86 11 -33 3 -74 8 -90 10 -33 5 -540 14 -546 9z"/>
</g>
</svg>
