<?xml version="1.0" encoding="utf-8"?>
<!-- Generator: Adobe Illustrator 16.0.0, SVG Export Plug-In . SVG Version: 6.00 Build 0)  -->
<!DOCTYPE svg PUBLIC "-//W3C//DTD SVG 1.1//EN" "http://www.w3.org/Graphics/SVG/1.1/DTD/svg11.dtd">
<svg version="1.1" id="Layer_1" xmlns="http://www.w3.org/2000/svg" xmlns:xlink="http://www.w3.org/1999/xlink" x="0px" y="0px"
	 width="160px" height="160px" viewBox="0 0 160 160" enable-background="new 0 0 160 160" xml:space="preserve">
<radialGradient id="SVGID_1_" cx="79.9995" cy="80.0005" r="112.6399" gradientUnits="userSpaceOnUse">
	<stop  offset="0" style="stop-color:#1E75B8"/>
	<stop  offset="0.1244" style="stop-color:#1C6BA9"/>
	<stop  offset="0.3645" style="stop-color:#155281"/>
	<stop  offset="0.6925" style="stop-color:#0B2A42"/>
	<stop  offset="1" style="stop-color:#000000"/>
</radialGradient>
<path fill="url(#SVGID_1_)" d="M160,80c0,44.2-35.8,80-80,80c-44.2,0-80-35.8-80-80C0,35.8,35.8,0,80,0C124.2,0,160,35.8,160,80z"/>
<g>
	<g>
		<path fill="#FFFFFF" d="M82.3,74c-2.3,0-4.6-1.2-6.9-3.6c0,0,0,0,0,0c-0.9-1-1.7-2.1-2.2-3.2c-0.6-1.2-1.1-2.4-1.4-3.6
			c0-0.1,0-0.3,0-0.4l13-27.5h-9l-6.5,16.7c-0.1,0.2-0.3,0.4-0.6,0.4c0,0-0.1,0-0.1,0c-0.3,0-0.5-0.3-0.5-0.6
			c-0.2-3-0.7-5.6-1.5-7.8c-0.7-2.2-1.8-4-3-5.5c-1.3-1.4-2.8-2.5-4.5-3.3c-1.8-0.7-3.9-1.1-6.2-1.1c-3.4,0-6.4,0.7-9,2.2
			c-2.6,1.4-4.9,3.6-6.8,6.5c0,0,0,0,0,0c-1.7,2.5-3,5.4-3.9,8.4c-0.9,3-1.3,6.4-1.3,9.9c0,2.7,0.4,5.3,1.2,7.6
			c0.8,2.3,2,4.5,3.6,6.5c1.7,2.2,3.7,3.8,5.9,4.9c2.2,1.1,4.6,1.6,7.2,1.6c2.4,0,4.6-0.4,6.6-1.2c2-0.8,3.9-2,5.7-3.5
			c2.7-2.6,5.4-6.4,8-11.5c0.1-0.2,0.3-0.3,0.5-0.3c0,0,0,0,0.1,0c0.2,0,0.5,0.2,0.5,0.4c0.8,2.8,1.3,4.7,1.8,6.2
			c0.5,1.6,1,2.9,1.4,3.8c0,0,0,0,0,0c0.9,2,2,3.6,3.1,4.6c1.1,1,2.3,1.4,3.6,1.4c2.2,0,3.8-1.1,4.9-3.5c0,0,0,0,0,0
			c1.1-2,1.7-4.2,1.7-6.7c0-0.3,0-0.6,0-0.9C86.1,73,84.3,74,82.3,74z M65.5,61.7c-1,2.3-2.6,5-4.6,8.1c0,0,0,0,0,0
			c-2.4,3.4-4.6,6-6.7,7.7c-2.2,1.8-4.2,2.7-6.2,2.7c-3.2,0-5.6-1.4-7.2-4.1c-0.8-1.3-1.4-3-1.7-4.9c-0.4-1.9-0.6-4.2-0.6-6.7
			c0-2.7,0.3-5.3,1-7.9c0.6-2.6,1.6-5.1,2.8-7.6c1.5-3.1,3.3-5.4,5.3-6.9c2-1.6,4.4-2.4,6.9-2.4c3.8,0,7.1,1.8,9.6,5.4c0,0,0,0,0,0
			C66,48,67,51.6,67,55.8C67,57.4,66.5,59.4,65.5,61.7z"/>
	</g>
	<path fill="#FFFFFF" d="M81.6,85.7c0,2.9,9.4-1.1,11.4-3.7c3.2-4.1,1.7-7.5,1.6-9.7c3.6,5,7.7,7.4,12.2,7.4c4.4,0,8-1.5,10.9-4.4
		c2.9-3,4.3-6.7,4.3-11c0-2.9-0.7-5.6-2.1-8.1c-1.4-2.4-3.4-4.3-5.9-5.4c3.1-2.1,4.6-5.7,4.6-10.6c0-3.3-1.3-6-3.9-8
		c-2.3-1.7-5.2-2.6-8.6-2.6c-10.1,0-15.2,6.1-15.2,18.2c0,1.3,0,3,0.1,4.9c0.1,1.9,0.1,4.2,0.2,6.9c0.1,2.6,0.1,4.9,0.2,6.8
		c0.1,1.9,0.1,3.6,0.1,4.8c0,1.1,0,2.2,0,3.3c0,1.1-0.1,2.1-0.1,3c-0.1,0.6-0.4,2.4-3.5,3.6C82.8,83.2,81.5,83.7,81.6,85.7z
		 M107.5,31.6c2,0,3.7,0.7,4.9,2c1.3,1.3,1.9,3,1.9,5.1c0,1.8-0.7,3.7-2.1,5.8c-1.5,2.3-3.1,3.5-4.8,3.5c-0.2,0-0.5,0-0.8,0
		c-0.3,0-0.7-0.1-1.1-0.1c-0.4-0.1-0.7-0.1-1.1-0.1c-0.3,0-0.6,0-0.8,0c-1.7,0-2.5,1.2-2.5,3.4c0,0.9,0.3,1.6,0.9,2.3
		c0.6,0.7,1.3,1,2.1,1c3,0,5.7-0.8,8.2-2.5c2.8,2.6,4.2,6.1,4.2,10.6c0,3.3-1.1,6.3-3.3,9.1c-2.3,2.9-5.2,4.3-8.5,4.3
		c-3.7,0-7.1-2.1-10.2-6.2v-3.7C94.4,43.1,98.7,31.6,107.5,31.6z"/>
</g>
<g>
	<text transform="matrix(1 0 0 1 20.3076 109.4502)" fill="#FFFFFF" font-family="'CenturyGothic'" font-size="20.5724">Connection</text>
</g>
<g>
	<defs>
		<path id="SVGID_2_" d="M160,80c0,44.2-35.8,80-80,80c-44.2,0-80-35.8-80-80C0,35.8,35.8,0,80,0C124.2,0,160,35.8,160,80z"/>
	</defs>
	<clipPath id="SVGID_3_">
		<use xlink:href="#SVGID_2_"  overflow="visible"/>
	</clipPath>
	<g clip-path="url(#SVGID_3_)">
		<path fill="#FFFFFF" d="M-49.1,155.8v-1.5h46.9l8.1,8.1c-0.3,0.3-0.5,0.8-0.5,1.3c0,1.1,0.9,2,2,2c1.1,0,2-0.9,2-2s-0.9-2-2-2
			c-0.5,0-0.9,0.2-1.3,0.5L-2,154h-47.1v-1.5h-14.9v3.4H-49.1z M6,163.7c0-0.8,0.7-1.5,1.5-1.5c0.8,0,1.5,0.7,1.5,1.5
			c0,0.8-0.7,1.5-1.5,1.5C6.7,165.2,6,164.6,6,163.7z"/>
		<path fill="#FFFFFF" d="M89.8,145.6l-5.5,5.5H9.2l-6.7-6.7h-51.6v1.5h-14.9v-3.4h14.9v1.5H2.7l6.7,6.7h74.8l5.5-5.5h16.2
			c0.1-0.9,0.8-1.6,1.7-1.6c1,0,1.8,0.8,1.8,1.8c0,1-0.8,1.8-1.8,1.8c-0.9,0-1.7-0.7-1.7-1.6H89.8z"/>
		<path fill="#FFFFFF" d="M65.4,164l-6.8-6.9H8.7l-7.8-7.8h-50v1.5h-14.9v-3.4h14.9v1.5H1.1l7.8,7.8h49.9l6.9,6.8h36.5
			c0.1-0.9,0.8-1.6,1.7-1.6c1,0,1.8,0.8,1.8,1.8c0,1-0.8,1.8-1.8,1.8c-0.9,0-1.7-0.7-1.7-1.6H65.4z"/>
		<path fill="#FFFFFF" d="M-8.6,177.7h-40.5l-5.2-5.2h-6.1l-3.6-3.6c-0.3,0.2-0.7,0.4-1.1,0.4c-1,0-1.7-0.8-1.7-1.7
			c0-1,0.8-1.8,1.7-1.8c1,0,1.8,0.8,1.8,1.8c0,0.4-0.1,0.8-0.4,1.1l3.5,3.5h6.1l5.3,5.2h40.5L12.2,198h15.6l13.1-13.1h14.9
			c0.1-0.9,0.8-1.6,1.7-1.6c1,0,1.8,0.8,1.8,1.8c0,1-0.8,1.8-1.8,1.8c-0.9,0-1.7-0.7-1.7-1.6H41l-13.1,13.1H12L-8.6,177.7z"/>
		<path fill="#FFFFFF" d="M-7.1,159c0.1-0.9,0.8-1.6,1.7-1.6c1,0,1.8,0.8,1.8,1.8c0,1-0.8,1.8-1.8,1.8c-0.9,0-1.7-0.7-1.7-1.6h-7.8
			l-10.7,10.7h-19l-6.4-6.4h-11.6c-0.1,0.9-0.8,1.6-1.7,1.6c-1,0-1.8-0.8-1.8-1.8c0-1,0.8-1.8,1.8-1.8c0.9,0,1.7,0.7,1.7,1.6h11.8
			l6.4,6.4h18.7L-15,159H-7.1z"/>
		<path fill="#FFFFFF" d="M-63.8,117.6v2.1c-0.9,0.1-1.6,0.8-1.6,1.7c0,1,0.8,1.8,1.8,1.8c1,0,1.8-0.8,1.8-1.8
			c0-0.9-0.7-1.7-1.6-1.7V118h22.8l3.8-3.8h22c0.1,1,0.9,1.8,2,1.8c1.1,0,2-0.9,2-2c0-1.1-0.9-2-2-2c-1,0-1.9,0.8-2,1.8h-22.2
			l-3.8,3.8H-63.8z M-14.3,114c0-0.8,0.7-1.5,1.5-1.5c0.8,0,1.5,0.7,1.5,1.5c0,0.8-0.7,1.5-1.5,1.5C-13.6,115.5-14.3,114.8-14.3,114
			z"/>
		<path fill="#FFFFFF" d="M54,164H17.4c-0.1,0.9-0.8,1.5-1.7,1.5c-1,0-1.8-0.8-1.8-1.8c0-1,0.8-1.8,1.8-1.8c0.9,0,1.6,0.7,1.7,1.5
			h36.8l8.2,8.2h11.8c0.1-0.9,0.8-1.5,1.7-1.5c1,0,1.8,0.8,1.8,1.8c0,1-0.8,1.8-1.8,1.8c-0.9,0-1.6-0.7-1.7-1.5h-12L54,164z"/>
		<path fill="#FFFFFF" d="M90.2,130.4c-0.9,0-1.7-0.7-1.7-1.6H47.3l-3.2-3.2H1.8l-4,4h-47v1.5h-14.9v-3.4h14.9v1.5h46.8l4-4h42.5
			l3.2,3.2h41c0.1-0.9,0.8-1.6,1.7-1.6c1,0,1.8,0.8,1.8,1.7S91.2,130.4,90.2,130.4z"/>
		<path fill="#FFFFFF" d="M69.7,136.8c-0.9,0-1.7,0.7-1.7,1.6H37l-3.2,3.2h-52.5l-4-4h-47v-1.5h-14.9v3.4h14.9V138h46.8l4,4H34
			l3.2-3.2h30.7c0.1,0.9,0.8,1.6,1.7,1.6c1,0,1.8-0.8,1.8-1.7C71.4,137.6,70.6,136.8,69.7,136.8z"/>
		<path fill="#FFFFFF" d="M98.3,134.7c-0.9,0-1.7-0.7-1.7-1.6H45.6l-3.3-3.3H4l-4.7,4.7h-48.4v1.5h-14.9v-3.4h14.9v1.5h48.2l4.7-4.7
			h38.6l3.3,3.3h50.8c0.1-0.9,0.8-1.6,1.7-1.6c1,0,1.8,0.8,1.8,1.8C100,133.9,99.2,134.7,98.3,134.7z"/>
		<path fill="#FFFFFF" d="M104.2,137.6c0-1.1-0.9-2-2-2c-1,0-1.9,0.8-2,1.8H77.9l-6.6,6.6H9.5l-4.8-4.8h-53.8v-1.5h-14.9v3.4h14.9
			v-1.5H4.6l4.8,4.8h62l6.6-6.6h22.2c0.1,1,0.9,1.8,2,1.8C103.3,139.5,104.2,138.7,104.2,137.6z M103.7,137.6c0,0.8-0.7,1.5-1.5,1.5
			c-0.8,0-1.5-0.7-1.5-1.5c0-0.8,0.7-1.5,1.5-1.5C103.1,136,103.7,136.7,103.7,137.6z"/>
		<path fill="#FFFFFF" d="M79.5,145c-0.9,0-1.7,0.7-1.7,1.6H48.6l-2,2h-8.8l-2.4-2.4H-4.2c-0.1-0.9-0.8-1.6-1.7-1.6
			c-1,0-1.8,0.8-1.8,1.8c0,1,0.8,1.8,1.8,1.8c0.9,0,1.7-0.7,1.7-1.6h39.4l2.4,2.4h9.1l2-2h29c0.1,0.9,0.8,1.6,1.7,1.6
			c1,0,1.8-0.8,1.8-1.8C81.3,145.8,80.5,145,79.5,145z"/>
		<path fill="#FFFFFF" d="M-22.2,119.5c-0.9,0-1.7-0.7-1.7-1.6h-9.6l-3.7,3.7h-19.8c-0.1,0.9-0.8,1.6-1.7,1.6c-1,0-1.8-0.8-1.8-1.8
			c0-1,0.8-1.8,1.8-1.8c0.9,0,1.7,0.7,1.7,1.6h19.7l3.7-3.7h9.7c0.1-0.9,0.8-1.6,1.7-1.6c1,0,1.8,0.8,1.8,1.8
			C-20.5,118.7-21.3,119.5-22.2,119.5z"/>
		<path fill="#FFFFFF" d="M-20.6,66.1c-0.4,0-0.8-0.1-1.1-0.4l-18,18h-6.2l-14.8,14.8v6l-5,5c0.2,0.3,0.4,0.7,0.4,1.1
			c0,1-0.8,1.8-1.8,1.8c-1,0-1.8-0.8-1.8-1.8c0-1,0.8-1.8,1.8-1.8c0.4,0,0.8,0.1,1.1,0.4l4.9-4.9v-6L-46,83.4l0.1-0.1h6.2l17.9-17.9
			c-0.2-0.3-0.4-0.7-0.4-1.1c0-1,0.8-1.8,1.8-1.8c1,0,1.8,0.8,1.8,1.8C-18.8,65.3-19.6,66.1-20.6,66.1z"/>
		<path fill="#FFFFFF" d="M-53.1,105.6c0-0.5-0.2-0.9-0.5-1.3l11.2-11.2h7.6l8.9-8.9c0.3,0.2,0.7,0.4,1.1,0.4c1,0,1.8-0.8,1.8-1.8
			c0-1-0.8-1.8-1.8-1.8c-1,0-1.8,0.8-1.8,1.8c0,0.4,0.1,0.8,0.4,1.1l-8.8,8.8h-7.6l-0.1,0.1L-53.8,104c-0.3-0.3-0.8-0.5-1.3-0.5
			c-1.1,0-2,0.9-2,2s0.9,2,2,2C-54,107.5-53.1,106.7-53.1,105.6z M-53.6,105.6c0,0.8-0.7,1.5-1.5,1.5c-0.8,0-1.5-0.7-1.5-1.5
			c0-0.8,0.7-1.5,1.5-1.5C-54.2,104-53.6,104.7-53.6,105.6z"/>
		<path fill="#FFFFFF" d="M-18.9,95.6v-4.7l13.5-13.5v-7.2C-6.3,70.1-7,69.3-7,68.4c0-1,0.8-1.8,1.8-1.8s1.8,0.8,1.8,1.8
			c0,0.9-0.7,1.7-1.6,1.7v7.3L-18.6,91v4.6c0.9,0.1,1.6,0.8,1.6,1.7c0,1-0.8,1.8-1.8,1.8c-1,0-1.8-0.8-1.8-1.8
			C-20.5,96.5-19.8,95.7-18.9,95.6z"/>
	</g>
</g>
</svg>
